<?xml version="1.0" standalone="no"?>
<!DOCTYPE svg PUBLIC "-//W3C//DTD SVG 20010904//EN"
 "http://www.w3.org/TR/2001/REC-SVG-20010904/DTD/svg10.dtd">
<svg version="1.0" xmlns="http://www.w3.org/2000/svg"
 width="520.000000pt" height="520.000000pt" viewBox="0 0 520.000000 520.000000"
 preserveAspectRatio="xMidYMid meet">
<metadata>
Created by potrace 1.14, written by Peter Selinger 2001-2017
</metadata>
<g transform="translate(0.000000,520.000000) scale(0.100000,-0.100000)"
fill="#000000" stroke="none">
<path d="M2574 4932 c-12 -20 -70 -129 -129 -242 -59 -113 -124 -236 -145
-275 -21 -38 -61 -115 -90 -170 -29 -55 -75 -143 -103 -195 -27 -52 -71 -135
-97 -185 -26 -49 -71 -135 -100 -190 -29 -55 -90 -170 -135 -255 -83 -156
-141 -267 -243 -460 -30 -58 -72 -136 -92 -175 -21 -38 -63 -119 -95 -180 -31
-60 -76 -146 -100 -190 -40 -76 -75 -143 -203 -385 -30 -58 -72 -136 -92 -175
-40 -75 -93 -175 -185 -350 -32 -60 -75 -141 -95 -180 -82 -154 -136 -255
-317 -600 -311 -589 -334 -635 -329 -644 8 -13 5156 -12 5156 1 0 6 -24 56
-54 112 -29 55 -91 173 -136 261 -46 88 -86 165 -90 170 -4 6 -39 71 -78 145
-39 74 -98 187 -132 250 -33 63 -71 134 -83 158 l-22 43 -277 -2 c-196 -2
-278 -6 -278 -13 0 -12 16 -45 183 -367 59 -113 107 -209 107 -212 0 -10
-3428 -8 -3434 2 -3 4 51 115 120 247 69 131 160 304 201 384 42 80 90 172
108 205 18 33 56 105 85 160 29 55 73 138 98 185 58 111 127 241 191 362 126
241 156 297 186 353 18 33 61 114 95 180 34 66 100 190 145 275 45 85 108 205
140 265 56 106 113 214 180 340 125 234 159 295 165 295 5 0 170 -301 250
-457 12 -24 25 -43 30 -43 7 0 113 189 221 397 l64 123 -77 152 c-147 291
-480 918 -488 918 -3 0 -15 -17 -26 -38z"/>
</g>
</svg>
