<?xml version="1.0" standalone="no"?>
<!DOCTYPE svg PUBLIC "-//W3C//DTD SVG 20010904//EN"
 "http://www.w3.org/TR/2001/REC-SVG-20010904/DTD/svg10.dtd">
<svg version="1.0" xmlns="http://www.w3.org/2000/svg"
 width="520.000000pt" height="520.000000pt" viewBox="0 0 520.000000 520.000000"
 preserveAspectRatio="xMidYMid meet">
<metadata>
Created by potrace 1.14, written by Peter Selinger 2001-2017
</metadata>
<g transform="translate(0.000000,520.000000) scale(0.100000,-0.100000)"
fill="#000000" stroke="none">
<path d="M2559 4912 c-20 -37 -192 -362 -382 -722 -615 -1168 -1759 -3335
-1966 -3726 -110 -209 -201 -386 -201 -392 0 -9 597 -12 2590 -12 1844 0 2590
3 2590 11 0 9 -283 551 -547 1047 l-54 102 -290 0 -290 0 49 -92 c133 -250
262 -497 262 -502 0 -3 -774 -6 -1721 -6 -1635 0 -1721 1 -1714 18 5 14 1416
2690 1634 3100 42 78 78 142 81 142 3 0 64 -111 135 -246 72 -135 135 -252
140 -260 8 -11 46 53 154 258 l143 271 -18 38 c-73 144 -550 1039 -554 1039
-3 0 -21 -31 -41 -68z"/>
</g>
</svg>
